<svg width="129" height="134" viewBox="0 0 129 134" fill="none" xmlns="http://www.w3.org/2000/svg">
<rect x="1.5" y="1.5" width="126" height="131" rx="8.5" stroke="black" stroke-width="3"/>
<path d="M34.5508 100.809C22.6016 100.809 14.6953 91.2852 14.6953 76.3711C14.6953 61.457 22.6016 51.9785 34.4609 51.9785C41.2441 51.9785 46.6348 55.3926 49.2852 60.6035H49.4648V35.1777H59.2129V100H49.7793V91.959H49.5996C46.8145 97.3496 41.4238 100.809 34.5508 100.809ZM37.1113 60.1543C29.4297 60.1543 24.623 66.4434 24.623 76.3711C24.623 86.3438 29.4297 92.5879 37.1113 92.5879C44.5684 92.5879 49.5547 86.2539 49.5547 76.3711C49.5547 66.5781 44.5684 60.1543 37.1113 60.1543ZM94.3418 100.809C87.4238 100.809 82.0781 97.4395 79.1582 91.959H78.9785V100H69.5449V35.1777H79.248V60.7832H79.4727C82.3027 55.3027 87.6934 51.9785 94.3867 51.9785C106.291 51.9785 114.062 61.4121 114.062 76.3711C114.062 91.375 106.336 100.809 94.3418 100.809ZM91.7363 60.1543C84.3691 60.1543 79.2031 66.623 79.2031 76.3711C79.2031 86.209 84.3691 92.5879 91.7363 92.5879C99.373 92.5879 104.09 86.3887 104.09 76.3711C104.09 66.4434 99.373 60.1543 91.7363 60.1543Z" fill="black"/>
</svg>
